<?xml version="1.0" encoding="utf-8"?>
<!-- Generator: Adobe Illustrator 16.0.0, SVG Export Plug-In . SVG Version: 6.00 Build 0)  -->
<!DOCTYPE svg PUBLIC "-//W3C//DTD SVG 1.1//EN" "http://www.w3.org/Graphics/SVG/1.1/DTD/svg11.dtd">
<svg version="1.1" id="JKL_logo_PROFILO_nero_e_TESTO_xA0_Image_1_"
	 xmlns="http://www.w3.org/2000/svg" xmlns:xlink="http://www.w3.org/1999/xlink" x="0px" y="0px" width="986px" height="435px"
	 viewBox="0 0 986 435" enable-background="new 0 0 986 435" xml:space="preserve">
<g>
	<path d="M1,436C1,291,1,146,1,1c328.667,0,657.334,0,986,0c0,145,0,290,0,435C658.334,436,329.667,436,1,436z M650.14,324.517
		c6.423-63.706-13.472-116.123-64.62-155.863c52.246-40.226,71.24-93.913,64.574-158.025c-21.469,0-43.038,0-65.011,0
		c0,2.979,0.077,5.621-0.014,8.256c-0.425,12.295,0.114,24.729-1.567,36.853c-3.229,23.259-15.015,42.23-32.406,57.805
		c-14.821,13.273-32.212,21.637-51.98,22.285c-30.79,1.009-61.633,0.388-92.454,0.456c-1.757,0.004-3.515,0.001-5.666,0.001
		c0-2.494,0-4.3,0-6.105c0.002-18.995,0.017-37.99,0.003-56.986c-0.021-28.393-16.741-52.939-43.211-63.465
		c-7.411-2.947-15.095-4.158-23.29-4.164c-0.087,1.704-0.196,2.84-0.196,3.976c-0.016,103.475-0.005,206.949-0.103,310.424
		c-0.003,3.712,1.042,4.87,4.792,4.838c19.327-0.166,38.656-0.068,57.985-0.099c1.259-0.002,2.517-0.304,4.19-0.52
		c0-41.605,0-82.855,0-124.212c1.439-0.099,2.42-0.225,3.401-0.225c27.66-0.021,55.32,0.051,82.979-0.066
		c16.865-0.071,33.007,2.707,47.638,11.554c25.592,15.476,42.639,37.444,47.675,67.175c2.229,13.164,1.581,26.817,2.21,40.249
		c0.09,1.906,0.013,3.82,0.013,5.86C607.324,324.517,628.77,324.517,650.14,324.517z M980.284,324.719
		c-0.473-4.057-0.827-7.45-1.269-10.832c-3.047-23.331-24.305-46.926-47.492-50.591c-13.191-2.085-26.82-1.347-40.243-2.044
		c-8.429-0.438-16.976-0.439-25.237-1.928c-23.536-4.24-41.735-17.399-56.137-35.975c-11.564-14.917-18.455-32.044-18.793-50.895
		c-0.605-33.644-0.092-67.306-0.194-100.959c-0.013-4.275-0.663-8.595-1.44-12.815c-4.973-26.954-31.222-51.417-59.219-52.888
		c-5.988-0.315-5.977-0.679-5.977,5.424c-0.002,51.814-0.08,103.63,0.083,155.444c0.026,8.274,0.495,16.655,1.872,24.799
		c4.973,29.41,17.277,55.339,37.355,77.64c33.602,37.319,75.309,55.908,125.523,55.646c28.156-0.147,56.313-0.026,84.47-0.026
		C975.541,324.719,977.496,324.719,980.284,324.719z M262.917,5.596c-20.035-0.4-39.388,9.425-52.215,25.829
		c-7.751,9.911-13.286,20.899-13.486,33.504c-0.513,32.322-0.303,64.656-0.474,96.984c-0.03,5.648-0.096,11.35-0.848,16.932
		c-3.212,23.854-14.279,43.585-32.077,59.639c-13.831,12.475-30.026,20.547-48.454,22.332c-15.853,1.535-31.914,0.856-47.879,1.32
		c-3.945,0.115-7.953,0.512-11.793,1.388c-25.945,5.914-46.309,30.085-47.836,54.84c-0.393,6.372-0.609,6.356,5.975,6.356
		c29.667-0.001,59.346,0.521,88.993-0.234c13.479-0.344,27.208-1.942,40.278-5.176c37.243-9.216,66.534-30.888,89.629-61.088
		c19.67-25.722,29.808-55.164,30.158-87.366c0.575-52.991,0.075-105.994,0.029-158.992C262.916,9.894,262.917,7.924,262.917,5.596z
		 M669.629,357.3c0,21.568,0,42.845,0,64.376c1.64,0,3.062,0,5.104,0c0-20.102,0-40.043,0-59.985c1.203,0.623,1.639,1.314,1.9,2.067
		c6.221,17.901,12.428,35.808,18.623,53.718c0.879,2.544,1.492,4.709,5.26,4.651c3.572-0.055,4.475-1.854,5.393-4.503
		c6.047-17.433,12.142-34.849,18.241-52.263c0.456-1.301,1.071-2.545,1.612-3.816c0.364,0.061,0.728,0.121,1.092,0.182
		c0,19.976,0,39.952,0,60.252c2.084-0.142,3.48-0.237,4.816-0.328c0-21.774,0-43.171,0-64.528
		c-9.076-0.799-9.055-0.791-11.861,7.156c-3.598,10.191-7.246,20.364-10.852,30.553c-2.579,7.292-5.121,14.597-8.063,22.986
		c-0.996-2.372-1.55-3.519-1.967-4.713c-5.697-16.326-11.367-32.662-17.063-48.989C679.052,356.049,679.034,356.056,669.629,357.3z
		 M929.656,421.918c7.226,0,13.9,0.362,20.521-0.071c16.803-1.098,27.061-9.604,29.28-25.254c0.935-6.586,0.377-13.68-1.004-20.226
		c-1.862-8.834-7.807-14.896-16.597-17.719c-10.548-3.389-21.304-1.237-32.201-1.891
		C929.656,378.834,929.656,400.084,929.656,421.918z M249.202,389.785c-0.282-0.121-0.564-0.243-0.847-0.364
		c-0.48-3.78-0.735-7.606-1.484-11.334c-2.331-11.593-10.497-20.255-20.468-21.999c-11.215-1.962-21.479,2.4-26.703,12.198
		c-7.191,13.49-7.204,27.523-0.616,41.164c4.396,9.103,12.207,13.776,22.578,13.604c10.14-0.169,17.749-4.938,21.867-13.907
		C246.306,403.1,247.371,396.267,249.202,389.785z M176.638,421.463c-6.641-9.341-13.019-18.249-19.324-27.21
		c-2.572-3.654-7.232-7.661-6.868-11.072c0.401-3.759,5.426-7.07,8.541-10.48c4.633-5.073,9.358-10.063,14.218-15.273
		c-4.581-1.49-7.213,0.06-9.813,2.961c-8.556,9.551-17.356,18.882-26.084,28.277c-0.726,0.78-1.621,1.403-3.217,2.765
		c0-12.007,0-23.063,0-34.265c-2.089,0-3.644,0-5.297,0c0,21.714,0,43.101,0,64.582c1.834,0,3.283,0,5.26,0
		c0-6.64-0.061-13.103,0.044-19.562c0.026-1.582,0.089-3.59,1.005-4.653c3.198-3.714,6.777-7.1,10.485-10.891
		c7.498,10.761,14.779,20.899,21.679,31.292C169.529,421.342,171.977,422.779,176.638,421.463z M337.735,421.595
		c13.72,0,27.109,0,40.383,0c1.228-3.717-0.105-4.816-3.48-4.694c-5.155,0.186-10.322,0.048-15.484,0.048
		c-5.255-0.001-10.51,0-15.697,0c0-9.536,0-18.258,0-27.358c7.545,0,14.691-0.081,21.834,0.036c3.31,0.055,4.651-1.016,3.203-4.97
		c-8.276,0-16.678,0-25.166,0c0-7.898,0-15.154,0-23.063c2.038,0,3.818,0,5.599-0.001c8.492-0.001,16.985-0.097,25.476,0.039
		c3.761,0.06,4.012-1.649,3.076-4.525c-13.328,0-26.413,0-39.745,0C337.735,378.792,337.735,400.182,337.735,421.595z
		 M870.311,389.588c7.686,0,14.98-0.066,22.272,0.027c3.64,0.048,4.255-1.495,2.778-4.97c-8.255,0-16.514,0-24.943,0
		c0-7.875,0-15.254,0-23.127c11.629,0,22.902,0,34.249,0c0-1.751,0-3.002,0-4.288c-13.454,0-26.647,0-39.81,0
		c0,21.773,0,43.124,0,64.438c13.709,0,26.967,0,40.636,0c-0.094-1.679-0.171-3.056-0.273-4.894c-11.835,0-23.252,0-34.909,0
		C870.311,407.698,870.311,399.106,870.311,389.588z M398.887,407.146c3.482,12.691,16.382,18.676,31.267,14.886
		c10.593-2.697,16.479-12.319,12.704-22.55c-1.386-3.756-5.11-7.497-8.737-9.38c-5.521-2.868-11.901-4.067-17.887-6.063
		c-4.619-1.54-8.428-3.887-9.302-9.309c-1.493-9.254,6.259-15.914,16.562-14.382c7.055,1.05,10.84,5.746,13.544,11.88
		c1.929-0.711,3.418-1.259,4.897-1.804c-5.057-15.263-26.077-20.204-36.628-8.627c-2.274,2.495-3.793,6.358-4.178,9.76
		c-0.896,7.919,2.565,13.171,10.361,16.27c6.004,2.388,12.377,3.837,18.417,6.146c6.301,2.408,8.745,6.904,7.983,13.342
		c-0.656,5.551-4.826,9.596-10.968,10.64c-11.402,1.938-16.926-1.003-23.328-12.655C402.04,405.91,400.44,406.537,398.887,407.146z
		 M464.749,407.139c4.113,12.851,16.343,18.547,31.062,14.954c10.949-2.673,16.441-12.149,13.274-22.853
		c-1.63-5.51-5.817-8.42-10.81-10.215c-6.093-2.19-12.437-3.704-18.463-6.048c-5.463-2.124-7.576-6.264-7.028-11.865
		c0.5-5.118,3.616-8.621,8.958-10.074c9.439-2.567,14.899,0.173,21.522,11.044c1.534-0.537,3.142-1.102,4.753-1.666
		c-5.187-14.274-22.382-19.537-34.302-10.905c-5.598,4.055-8.018,10.435-6.473,17.155c1.363,5.932,5.393,9.46,10.846,11.41
		c5.78,2.068,11.758,3.597,17.494,5.771c6.599,2.501,9.151,7.039,8.295,13.618c-0.745,5.729-5.019,9.613-11.602,10.546
		c-11.28,1.599-15.897-0.943-22.759-12.688C468.066,405.876,466.575,406.443,464.749,407.139z M104.005,421.724
		c-6.796-20.455-13.53-40.599-20.15-60.78c-0.945-2.883-2.244-4.239-5.575-4.269c-3.417-0.031-4.124,1.845-4.954,4.349
		c-5.426,16.378-10.924,32.732-16.398,49.095c-1.274,3.81-2.546,7.62-3.793,11.356c4.248,1.404,5.95-0.133,6.905-3.739
		c1.273-4.804,3.275-9.413,4.599-14.208c0.774-2.802,2.198-3.613,4.962-3.529c5.982,0.18,11.976,0.147,17.961,0.012
		c2.528-0.057,3.817,0.631,4.569,3.291c1.754,6.201,3.956,12.276,5.983,18.423C100.134,421.724,101.901,421.724,104.005,421.724z
		 M313.73,416.825c-11.317,0-22.224,0-33.684,0c0-20.202,0-39.92,0-60.024c-2.144,0.138-3.698,0.238-5.222,0.336
		c0,21.835,0,43.192,0,64.562c13.182,0,25.945,0,38.906,0C313.73,420.176,313.73,418.899,313.73,416.825z M576.025,416.979
		c0-20.384,0-40.103,0-60.204c-2.145,0.158-3.698,0.273-5.184,0.383c0,21.838,0,43.188,0,64.53c13.197,0,25.958,0,39.047,0
		c-0.081-1.654-0.148-3.032-0.231-4.709C598.506,416.979,587.721,416.979,576.025,416.979z M812.888,361.591
		c0,20.45,0,40.3,0,60.464c2.155-0.193,3.564-0.32,5.487-0.493c0-20.033,0-39.758,0-59.973c6.34,0,12.145-0.11,17.942,0.041
		c3.606,0.094,4.228-1.445,3.233-4.409c-16.113,0-31.984,0-47.863,0c0.154,4.236,0.153,4.313,3.641,4.353
		C800.945,361.638,806.564,361.591,812.888,361.591z M24.407,357.034c0,2.341,0,4.145,0,5.949
		c-0.001,13.638,0.068,27.276-0.023,40.913c-0.076,11.26-4.145,14.952-15.273,14.226c-0.597-0.039-1.212,0.211-1.697,0.304
		c-0.479,3.358,0.654,4.588,4.036,4.686c11.884,0.346,18.387-5.58,18.565-17.605c0.133-8.979,0.035-17.962,0.037-26.942
		c0.002-7.115,0-14.229,0-21.529C28.059,357.034,26.617,357.034,24.407,357.034z M638.75,421.973c0-21.993,0-43.412,0-65.191
		c-1.887,0.152-3.441,0.277-5.078,0.409c0,21.757,0,43.03,0,64.538C635.385,421.811,636.844,421.881,638.75,421.973z
		 M762.647,357.035c0,21.821,0,43.095,0,64.635c1.802,0,3.364,0,5.13,0c0-21.604,0-43.021,0-64.635
		C766.057,357.035,764.611,357.035,762.647,357.035z"/>
	<path fill-rule="evenodd" clip-rule="evenodd" fill="#FFFFFF" d="M650.14,324.517c-21.37,0-42.815,0-65.057,0
		c0-2.04,0.077-3.954-0.013-5.86c-0.629-13.432,0.02-27.085-2.21-40.249c-5.036-29.73-22.083-51.699-47.675-67.175
		c-14.631-8.847-30.773-11.625-47.638-11.554c-27.659,0.117-55.32,0.046-82.979,0.066c-0.98,0-1.961,0.126-3.401,0.225
		c0,41.356,0,82.606,0,124.212c-1.673,0.216-2.932,0.518-4.19,0.52c-19.329,0.03-38.658-0.067-57.985,0.099
		c-3.75,0.032-4.795-1.126-4.792-4.838c0.098-103.475,0.087-206.949,0.103-310.424c0-1.136,0.109-2.271,0.196-3.976
		c8.194,0.006,15.878,1.217,23.29,4.164c26.47,10.525,43.19,35.072,43.211,63.465c0.014,18.996-0.001,37.991-0.003,56.986
		c0,1.806,0,3.611,0,6.105c2.151,0,3.909,0.003,5.666-0.001c30.82-0.068,61.664,0.553,92.454-0.456
		c19.769-0.648,37.159-9.012,51.98-22.285c17.392-15.574,29.178-34.546,32.406-57.805c1.682-12.124,1.143-24.558,1.567-36.853
		c0.091-2.635,0.014-5.276,0.014-8.256c21.973,0,43.542,0,65.011,0c6.666,64.112-12.328,117.8-64.574,158.025
		C636.668,208.394,656.563,260.811,650.14,324.517z"/>
	<path fill-rule="evenodd" clip-rule="evenodd" fill="#FFFFFF" d="M980.284,324.719c-2.788,0-4.743,0-6.697,0
		c-28.157,0-56.313-0.121-84.47,0.026c-50.215,0.263-91.922-18.326-125.523-55.646c-20.078-22.301-32.383-48.229-37.355-77.64
		c-1.377-8.144-1.846-16.524-1.872-24.799c-0.163-51.814-0.085-103.63-0.083-155.444c0-6.103-0.012-5.739,5.977-5.424
		c27.997,1.471,54.246,25.934,59.219,52.888c0.777,4.221,1.428,8.54,1.44,12.815c0.103,33.653-0.411,67.315,0.194,100.959
		c0.338,18.851,7.229,35.978,18.793,50.895c14.401,18.575,32.601,31.734,56.137,35.975c8.262,1.488,16.809,1.489,25.237,1.928
		c13.423,0.697,27.052-0.041,40.243,2.044c23.188,3.665,44.445,27.26,47.492,50.591
		C979.457,317.269,979.812,320.662,980.284,324.719z"/>
	<path fill-rule="evenodd" clip-rule="evenodd" fill="#FFFFFF" d="M262.917,5.596c0,2.328-0.001,4.298,0,6.268
		c0.046,52.998,0.546,106.001-0.029,158.992c-0.35,32.202-10.488,61.645-30.158,87.366c-23.095,30.2-52.386,51.872-89.629,61.088
		c-13.07,3.233-26.799,4.832-40.278,5.176c-29.647,0.755-59.327,0.233-88.993,0.234c-6.583,0-6.368,0.016-5.975-6.356
		c1.528-24.755,21.892-48.926,47.836-54.84c3.84-0.876,7.848-1.272,11.793-1.388c15.965-0.464,32.026,0.215,47.879-1.32
		c18.428-1.785,34.623-9.857,48.454-22.332c17.797-16.054,28.865-35.784,32.077-59.639c0.752-5.582,0.818-11.283,0.848-16.932
		c0.171-32.328-0.039-64.662,0.474-96.984c0.2-12.604,5.735-23.593,13.486-33.504C223.529,15.021,242.882,5.195,262.917,5.596z"/>
	<path fill-rule="evenodd" clip-rule="evenodd" fill="#FFFFFF" d="M669.629,357.3c9.405-1.244,9.423-1.251,12.236,6.815
		c5.695,16.327,11.365,32.663,17.063,48.989c0.417,1.194,0.971,2.341,1.967,4.713c2.941-8.39,5.483-15.694,8.063-22.986
		c3.605-10.188,7.254-20.361,10.852-30.553c2.807-7.947,2.785-7.955,11.861-7.156c0,21.357,0,42.754,0,64.528
		c-1.336,0.091-2.732,0.187-4.816,0.328c0-20.3,0-40.276,0-60.252c-0.364-0.061-0.728-0.121-1.092-0.182
		c-0.541,1.271-1.156,2.516-1.612,3.816c-6.1,17.414-12.194,34.83-18.241,52.263c-0.918,2.648-1.82,4.448-5.393,4.503
		c-3.768,0.058-4.381-2.107-5.26-4.651c-6.195-17.91-12.402-35.816-18.623-53.718c-0.262-0.753-0.697-1.444-1.9-2.067
		c0,19.942,0,39.884,0,59.985c-2.042,0-3.464,0-5.104,0C669.629,400.145,669.629,378.868,669.629,357.3z"/>
	<path fill-rule="evenodd" clip-rule="evenodd" fill="#FFFFFF" d="M929.656,421.918c0-21.834,0-43.084,0-65.16
		c10.897,0.653,21.653-1.498,32.201,1.891c8.79,2.823,14.734,8.885,16.597,17.719c1.381,6.546,1.938,13.64,1.004,20.226
		c-2.22,15.65-12.478,24.156-29.28,25.254C943.557,422.28,936.882,421.918,929.656,421.918z M935.243,416.972
		c13.3-0.115,27.021,2.643,35.192-11.361c5.924-10.148,5.141-27.94-1.732-36.103c-9.074-10.775-21.502-7.966-33.46-8.221
		C935.243,380.094,935.243,398.191,935.243,416.972z"/>
	<path fill-rule="evenodd" clip-rule="evenodd" fill="#FFFFFF" d="M249.202,389.785c-1.831,6.481-2.896,13.314-5.672,19.361
		c-4.119,8.97-11.728,13.738-21.867,13.907c-10.371,0.173-18.183-4.501-22.578-13.604c-6.587-13.641-6.575-27.674,0.616-41.164
		c5.224-9.798,15.488-14.16,26.703-12.198c9.972,1.744,18.137,10.406,20.468,21.999c0.749,3.728,1.003,7.554,1.484,11.334
		C248.637,389.542,248.919,389.664,249.202,389.785z M242.888,389.49c-1.369-5.832-2.071-11.671-4.147-16.972
		c-2.874-7.338-8.619-11.667-16.848-11.896c-7.954-0.223-13.965,3.332-17.326,10.37c-5.677,11.888-5.694,24.212-0.327,36.144
		c3.314,7.368,9.471,11.28,17.975,10.948c8.114-0.317,13.604-4.583,16.434-11.685C240.755,401.11,241.493,395.275,242.888,389.49z"
		/>
	<path fill-rule="evenodd" clip-rule="evenodd" fill="#FFFFFF" d="M176.638,421.463c-4.661,1.316-7.109-0.121-9.372-3.529
		c-6.9-10.393-14.182-20.531-21.679-31.292c-3.708,3.791-7.287,7.177-10.485,10.891c-0.916,1.063-0.979,3.071-1.005,4.653
		c-0.105,6.459-0.044,12.922-0.044,19.562c-1.977,0-3.426,0-5.26,0c0-21.481,0-42.868,0-64.582c1.653,0,3.208,0,5.297,0
		c0,11.201,0,22.258,0,34.265c1.596-1.361,2.492-1.984,3.217-2.765c8.729-9.396,17.529-18.727,26.084-28.277
		c2.6-2.901,5.232-4.451,9.813-2.961c-4.859,5.211-9.584,10.2-14.218,15.273c-3.115,3.41-8.14,6.722-8.541,10.48
		c-0.364,3.411,4.296,7.418,6.868,11.072C163.619,403.214,169.997,412.122,176.638,421.463z"/>
	<path fill-rule="evenodd" clip-rule="evenodd" fill="#FFFFFF" d="M337.735,421.595c0-21.413,0-42.803,0-64.488
		c13.333,0,26.417,0,39.745,0c0.936,2.876,0.685,4.585-3.076,4.525c-8.49-0.136-16.983-0.04-25.476-0.039
		c-1.78,0.001-3.561,0.001-5.599,0.001c0,7.908,0,15.164,0,23.063c8.487,0,16.89,0,25.166,0c1.448,3.954,0.107,5.024-3.203,4.97
		c-7.143-0.117-14.289-0.036-21.834-0.036c0,9.101,0,17.822,0,27.358c5.187,0,10.441-0.001,15.697,0
		c5.162,0,10.329,0.138,15.484-0.048c3.375-0.122,4.708,0.978,3.48,4.694C364.845,421.595,351.456,421.595,337.735,421.595z"/>
	<path fill-rule="evenodd" clip-rule="evenodd" fill="#FFFFFF" d="M870.311,389.588c0,9.519,0,18.11,0,27.187
		c11.657,0,23.074,0,34.909,0c0.103,1.838,0.18,3.215,0.273,4.894c-13.669,0-26.927,0-40.636,0c0-21.313,0-42.664,0-64.438
		c13.162,0,26.355,0,39.81,0c0,1.286,0,2.537,0,4.288c-11.347,0-22.62,0-34.249,0c0,7.873,0,15.252,0,23.127
		c8.43,0,16.688,0,24.943,0c1.477,3.475,0.861,5.018-2.778,4.97C885.291,389.521,877.996,389.588,870.311,389.588z"/>
	<path fill-rule="evenodd" clip-rule="evenodd" fill="#FFFFFF" d="M398.887,407.146c1.554-0.609,3.153-1.236,4.709-1.848
		c6.401,11.652,11.926,14.593,23.328,12.655c6.142-1.044,10.312-5.089,10.968-10.64c0.761-6.438-1.682-10.934-7.983-13.342
		c-6.041-2.309-12.413-3.758-18.417-6.146c-7.796-3.099-11.257-8.351-10.361-16.27c0.385-3.401,1.904-7.265,4.178-9.76
		c10.551-11.577,31.571-6.636,36.628,8.627c-1.479,0.545-2.968,1.093-4.897,1.804c-2.705-6.134-6.489-10.83-13.544-11.88
		c-10.303-1.532-18.055,5.128-16.562,14.382c0.875,5.422,4.683,7.769,9.302,9.309c5.986,1.996,12.365,3.195,17.887,6.063
		c3.626,1.883,7.351,5.624,8.737,9.38c3.775,10.23-2.111,19.853-12.704,22.55C415.269,425.822,402.369,419.838,398.887,407.146z"/>
	<path fill-rule="evenodd" clip-rule="evenodd" fill="#FFFFFF" d="M464.749,407.139c1.826-0.695,3.317-1.263,4.769-1.815
		c6.862,11.744,11.479,14.286,22.759,12.688c6.583-0.933,10.857-4.817,11.602-10.546c0.856-6.579-1.696-11.117-8.295-13.618
		c-5.736-2.174-11.714-3.702-17.494-5.771c-5.454-1.95-9.483-5.479-10.846-11.41c-1.545-6.721,0.875-13.101,6.473-17.155
		c11.919-8.632,29.115-3.369,34.302,10.905c-1.611,0.564-3.219,1.129-4.753,1.666c-6.623-10.871-12.083-13.611-21.522-11.044
		c-5.342,1.453-8.458,4.956-8.958,10.074c-0.548,5.602,1.565,9.741,7.028,11.865c6.026,2.344,12.371,3.857,18.463,6.048
		c4.992,1.795,9.18,4.705,10.81,10.215c3.167,10.703-2.325,20.18-13.274,22.853C481.091,425.686,468.862,419.989,464.749,407.139z"
		/>
	<path fill-rule="evenodd" clip-rule="evenodd" fill="#FFFFFF" d="M104.005,421.724c-2.104,0-3.872,0-5.89,0
		c-2.027-6.146-4.229-12.222-5.983-18.423c-0.752-2.66-2.041-3.348-4.569-3.291c-5.985,0.136-11.979,0.168-17.961-0.012
		c-2.764-0.084-4.188,0.728-4.962,3.529c-1.324,4.795-3.326,9.404-4.599,14.208c-0.956,3.606-2.657,5.144-6.905,3.739
		c1.248-3.736,2.519-7.547,3.793-11.356c5.474-16.362,10.972-32.717,16.398-49.095c0.83-2.504,1.537-4.38,4.954-4.349
		c3.331,0.029,4.629,1.386,5.575,4.269C90.475,381.125,97.209,401.269,104.005,421.724z M89.641,395.518
		c-3.726-11.689-7.291-22.873-11.32-35.515c-3.962,12.724-7.461,23.957-11.06,35.515C75,395.518,81.903,395.518,89.641,395.518z"/>
	<path fill-rule="evenodd" clip-rule="evenodd" fill="#FFFFFF" d="M313.73,416.825c0,2.074,0,3.351,0,4.873
		c-12.961,0-25.724,0-38.906,0c0-21.369,0-42.727,0-64.562c1.524-0.098,3.078-0.198,5.222-0.336c0,20.104,0,39.822,0,60.024
		C291.506,416.825,302.413,416.825,313.73,416.825z"/>
	<path fill-rule="evenodd" clip-rule="evenodd" fill="#FFFFFF" d="M576.025,416.979c11.695,0,22.48,0,33.632,0
		c0.083,1.677,0.15,3.055,0.231,4.709c-13.089,0-25.85,0-39.047,0c0-21.343,0-42.692,0-64.53c1.485-0.109,3.039-0.225,5.184-0.383
		C576.025,376.877,576.025,396.596,576.025,416.979z"/>
	<path fill-rule="evenodd" clip-rule="evenodd" fill="#FFFFFF" d="M812.888,361.591c-6.323,0-11.942,0.047-17.56-0.018
		c-3.487-0.04-3.486-0.116-3.641-4.353c15.879,0,31.75,0,47.863,0c0.994,2.964,0.373,4.503-3.233,4.409
		c-5.798-0.151-11.603-0.041-17.942-0.041c0,20.215,0,39.939,0,59.973c-1.923,0.173-3.332,0.3-5.487,0.493
		C812.888,401.891,812.888,382.041,812.888,361.591z"/>
	<path fill-rule="evenodd" clip-rule="evenodd" fill="#FFFFFF" d="M24.407,357.034c2.209,0,3.652,0,5.645,0
		c0,7.3,0.001,14.414,0,21.529c-0.002,8.98,0.096,17.963-0.037,26.942c-0.179,12.025-6.682,17.951-18.565,17.605
		c-3.381-0.098-4.515-1.327-4.036-4.686c0.485-0.093,1.1-0.343,1.697-0.304c11.129,0.727,15.197-2.966,15.273-14.226
		c0.092-13.637,0.022-27.275,0.023-40.913C24.407,361.179,24.407,359.375,24.407,357.034z"/>
	<path fill-rule="evenodd" clip-rule="evenodd" fill="#FFFFFF" d="M638.75,421.973c-1.906-0.092-3.365-0.162-5.078-0.244
		c0-21.508,0-42.781,0-64.538c1.637-0.132,3.191-0.257,5.078-0.409C638.75,378.561,638.75,399.979,638.75,421.973z"/>
	<path fill-rule="evenodd" clip-rule="evenodd" fill="#FFFFFF" d="M762.647,357.035c1.964,0,3.409,0,5.13,0
		c0,21.613,0,43.03,0,64.635c-1.766,0-3.328,0-5.13,0C762.647,400.13,762.647,378.856,762.647,357.035z"/>
	<path d="M935.243,416.972c0-18.78,0-36.878,0-55.685c11.958,0.255,24.386-2.555,33.46,8.221c6.873,8.162,7.656,25.954,1.732,36.103
		C962.264,419.614,948.543,416.856,935.243,416.972z"/>
	<path d="M242.888,389.49c-1.395,5.785-2.132,11.62-4.24,16.909c-2.83,7.102-8.319,11.367-16.434,11.685
		c-8.504,0.332-14.661-3.58-17.975-10.948c-5.367-11.932-5.35-24.256,0.327-36.144c3.361-7.038,9.372-10.593,17.326-10.37
		c8.229,0.229,13.975,4.559,16.848,11.896C240.816,377.819,241.519,383.658,242.888,389.49z"/>
	<path d="M89.641,395.518c-7.737,0-14.641,0-22.38,0c3.599-11.558,7.098-22.791,11.06-35.515
		C82.35,372.645,85.915,383.828,89.641,395.518z"/>
</g>
</svg>
